<?xml version="1.0" encoding="UTF-8"?>
<svg version="1.1" xmlns="http://www.w3.org/2000/svg" width="253" height="68">
<path d="M0 0 C1.54675415 -0.01418472 1.54675415 -0.01418472 3.12475586 -0.02865601 C4.23729736 -0.02258331 5.34983887 -0.01651062 6.49609375 -0.01025391 C7.63892822 -0.01312408 8.7817627 -0.01599426 9.95922852 -0.01895142 C12.3767954 -0.02099398 14.79437874 -0.01545079 17.21191406 -0.00292969 C20.9189946 0.01312039 24.62498475 -0.00277281 28.33203125 -0.02197266 C30.67838783 -0.01999026 33.02474373 -0.01614666 35.37109375 -0.01025391 C37.03990601 -0.01936295 37.03990601 -0.01936295 38.74243164 -0.02865601 C39.77360107 -0.01919952 40.80477051 -0.00974304 41.8671875 0 C43.22928345 0.00358017 43.22928345 0.00358017 44.61889648 0.00723267 C47.38804608 0.46297698 48.23292488 1.20306738 49.93359375 3.38818359 C51.09799234 5.71698077 51.06623032 7.08910669 51.07885742 9.68261719 C51.08523727 10.5704892 51.09161713 11.45836121 51.09819031 12.37313843 C51.09930313 13.33458771 51.10041595 14.29603699 51.1015625 15.28662109 C51.1065551 16.76637924 51.1065551 16.76637924 51.11164856 18.27603149 C51.1167176 20.36581963 51.11905689 22.45561588 51.11889648 24.54541016 C51.12108006 27.74313721 51.13922807 30.94051776 51.15820312 34.13818359 C51.16113762 36.16682824 51.16312204 38.19547454 51.1640625 40.22412109 C51.17124802 41.18152191 51.17843353 42.13892273 51.18583679 43.12533569 C51.18276016 44.01951202 51.17968353 44.91368835 51.17651367 45.83496094 C51.17793869 46.61946625 51.17936371 47.40397156 51.18083191 48.21224976 C50.89979009 50.68568832 50.24804729 52.28243382 48.93359375 54.38818359 C46.44908742 55.63043676 44.76026329 55.52846713 41.98071289 55.54931641 C40.43384544 55.56372772 40.43384544 55.56372772 38.85572815 55.57843018 C37.73802536 55.58268005 36.62032257 55.58692993 35.46875 55.59130859 C34.32450058 55.59700867 33.18025116 55.60270874 32.00132751 55.60858154 C29.57779874 55.61803978 27.15425706 55.62456878 24.73071289 55.62841797 C21.01491003 55.63813439 17.29965758 55.66915518 13.58398438 55.70068359 C11.23307621 55.70721231 8.88216408 55.7124633 6.53125 55.71630859 C5.41557144 55.7286554 4.29989288 55.7410022 3.15040588 55.75372314 C2.11600876 55.75072205 1.08161163 55.74772095 0.01586914 55.74462891 C-1.35075111 55.75009735 -1.35075111 55.75009735 -2.74497986 55.75567627 C-5.06640625 55.38818359 -5.06640625 55.38818359 -6.85978699 54.16534424 C-8.43293141 51.84834961 -8.44679408 50.38903709 -8.45458984 47.59716797 C-8.46404633 46.62606079 -8.47350281 45.65495361 -8.48324585 44.65441895 C-8.47717316 43.60749878 -8.47110046 42.56057861 -8.46484375 41.48193359 C-8.46771393 40.40568726 -8.47058411 39.32944092 -8.47354126 38.22058105 C-8.4755835 35.94424921 -8.47004254 33.66789988 -8.45751953 31.39160156 C-8.4414688 27.90178286 -8.45736353 24.4131224 -8.4765625 20.92333984 C-8.4745801 18.71370186 -8.47073649 16.50406461 -8.46484375 14.29443359 C-8.47091644 13.24751343 -8.47698914 12.20059326 -8.48324585 11.12194824 C-8.47378937 10.15084106 -8.46433289 9.17973389 -8.45458984 8.17919922 C-8.45220306 7.32442993 -8.44981628 6.46966064 -8.44735718 5.58898926 C-8.06640625 3.38818359 -8.06640625 3.38818359 -6.85879517 1.61300659 C-4.46480919 -0.02291576 -2.89028099 0.00759689 0 0 Z M-2.06640625 10.38818359 C-2.80551281 13.61337585 -2.98657356 16.18738654 -2.06640625 19.38818359 C0.58374315 21.92254977 3.33317441 23.8017116 6.4296875 25.75927734 C8.93359375 27.38818359 8.93359375 27.38818359 9.93359375 29.38818359 C9.25296875 29.61505859 8.57234375 29.84193359 7.87109375 30.07568359 C2.37636104 32.47802218 2.37636104 32.47802218 -2.06640625 36.38818359 C-2.65655533 39.47352441 -2.49190887 42.28809309 -2.06640625 45.38818359 C0.97687483 43.79303385 3.95743343 42.10503157 6.93359375 40.38818359 C7.86558594 39.88029297 8.79757813 39.37240234 9.7578125 38.84912109 C14.84386914 35.83799795 14.84386914 35.83799795 17.87890625 30.96240234 C18.15533405 28.02424238 17.97319859 26.15451408 16.93359375 23.38818359 C14.34737719 20.35400805 11.33110914 18.43266211 7.93359375 16.38818359 C7.00160156 15.80681641 6.06960937 15.22544922 5.109375 14.62646484 C2.73742542 13.1748723 0.34945059 11.76507069 -2.06640625 10.38818359 Z M39.15234375 12.97802734 C38.39308594 13.51492187 37.63382813 14.05181641 36.8515625 14.60498047 C36.05363281 15.1728125 35.25570312 15.74064453 34.43359375 16.32568359 C33.63566406 16.88964844 32.83773437 17.45361328 32.015625 18.03466797 C27.2534275 20.8496304 27.2534275 20.8496304 24.51953125 25.20849609 C24.27987956 27.82691272 24.30247332 29.8263329 24.93359375 32.38818359 C27.49798494 35.39408553 30.58616162 37.32973338 33.93359375 39.38818359 C34.86558594 39.97083984 35.79757813 40.55349609 36.7578125 41.15380859 C39.13051192 42.60247529 41.51848827 44.01172473 43.93359375 45.38818359 C44.58491496 42.19670968 44.78893675 39.55295268 43.93359375 36.38818359 C41.48812634 34.1357794 39.00004024 32.55139033 36.12109375 30.89599609 C35.39921875 30.39841797 34.67734375 29.90083984 33.93359375 29.38818359 C33.93359375 28.39818359 33.93359375 27.40818359 33.93359375 26.38818359 C36.12109375 24.88037109 36.12109375 24.88037109 38.93359375 23.26318359 C42.7779648 20.86054345 42.7779648 20.86054345 44.59765625 16.93115234 C44.56211721 14.6744236 44.38451859 12.59771533 43.93359375 10.38818359 C42.07532128 10.38818359 40.61560649 11.94132521 39.15234375 12.97802734 Z " fill="#F5752A" transform="translate(13.06640625,1.61181640625)"/>
<path d="M0 0 C20.7 0 20.7 0 25.875 4.5 C29.11205974 8.30830558 29.38294701 10.79039947 29.3671875 15.66796875 C28.75860943 19.53308694 26.7529233 21.31589979 24 24 C25.76429199 28.97209562 28.3939166 33.43438061 31 38 C28.85566239 40.14433761 25.4996374 39.81178779 22.640625 39.828125 C18.80252742 38.62446126 18.01561241 36.53136277 16.125 33.0625 C15.61195313 31.96035156 15.09890625 30.85820313 14.5703125 29.72265625 C14.05210937 28.82417969 13.53390625 27.92570312 13 27 C11.68 26.67 10.36 26.34 9 26 C9 30.29 9 34.58 9 39 C6.03 39 3.06 39 0 39 C0 26.13 0 13.26 0 0 Z M9 10 C9 12.31 9 14.62 9 17 C10.27875 17.020625 11.5575 17.04125 12.875 17.0625 C13.59429687 17.07410156 14.31359375 17.08570313 15.0546875 17.09765625 C17.08185404 17.12649242 17.08185404 17.12649242 19 16 C19.042721 14.33388095 19.04063832 12.66617115 19 11 C17.99163938 9.76732652 17.99163938 9.76732652 15.93359375 9.90234375 C14.69802734 9.91974609 14.69802734 9.91974609 13.4375 9.9375 C12.19806641 9.95103516 12.19806641 9.95103516 10.93359375 9.96484375 C9.97646484 9.98224609 9.97646484 9.98224609 9 10 Z " fill="#113D6E" transform="translate(149,10)"/>
<path d="M0 0 C4.02180794 7.60516845 7.25351324 15.40256143 10.3125 23.4375 C10.76689453 24.60732422 11.22128906 25.77714844 11.68945312 26.98242188 C12.11806641 28.10068359 12.54667969 29.21894531 12.98828125 30.37109375 C13.56896362 31.8859436 13.56896362 31.8859436 14.16137695 33.43139648 C15 36 15 36 15 39 C11.7 39 8.4 39 5 39 C4.01 35.535 4.01 35.535 3 32 C-1.95 32 -6.9 32 -12 32 C-12.33 33.98 -12.66 35.96 -13 38 C-14 39 -14 39 -16.28515625 39.09765625 C-18.85677083 39.06510417 -21.42838542 39.03255208 -24 39 C-21.871196 31.25756128 -19.12469306 23.80573035 -16.18383789 16.33764648 C-15.42763623 14.41238724 -14.68338212 12.48276409 -13.93945312 10.55273438 C-13.46314453 9.33779297 -12.98683594 8.12285156 -12.49609375 6.87109375 C-12.06482178 5.76693115 -11.6335498 4.66276855 -11.18920898 3.52514648 C-8.89035084 -1.35621048 -4.80538268 -0.07750617 0 0 Z M-5 13 C-5.99 16.3 -6.98 19.6 -8 23 C-5.69 23 -3.38 23 -1 23 C-1.99 19.7 -2.98 16.4 -4 13 C-4.33 13 -4.66 13 -5 13 Z " fill="#113E6E" transform="translate(131,10)"/>
<path d="M0 0 C3.48395472 -0.56780751 6.53600286 -0.75916338 10 0 C12.99002646 2.60116537 15.10655422 5.52659285 17 9 C17 9.66 17 10.32 17 11 C17.66 11 18.32 11 19 11 C19.226875 10.29875 19.45375 9.5975 19.6875 8.875 C21.29345278 5.35719867 22.75951078 2.20234622 26 0 C29.39195799 -0.503859 32.59791939 -0.35672302 36 0 C35.40937384 2.98684605 34.55784458 4.89092436 32.6796875 7.27734375 C32.22722656 7.87353516 31.77476562 8.46972656 31.30859375 9.08398438 C30.35181637 10.3210167 29.38823086 11.55281273 28.41796875 12.77929688 C25.72598161 16.32493887 25.72598161 16.32493887 24.94921875 20.59765625 C26.25786631 23.58954565 27.93443032 25.92100251 29.9375 28.5 C32.58190472 31.91708922 34.58305506 34.90495495 36 39 C32.51604528 39.56780751 29.46399714 39.75916338 26 39 C23.00997354 36.39883463 20.89344578 33.47340715 19 30 C19 29.34 19 28.68 19 28 C18.34 28 17.68 28 17 28 C16.773125 28.70125 16.54625 29.4025 16.3125 30.125 C14.70654722 33.64280133 13.24048922 36.79765378 10 39 C6.60804201 39.503859 3.40208061 39.35672302 0 39 C1.7199791 33.91608387 4.7787547 29.94900698 7.98632812 25.72851562 C10.37450451 22.68768276 10.37450451 22.68768276 10.75537109 19.01806641 C9.96989089 16.91955983 9.0644611 15.43510022 7.71484375 13.65234375 C7.26689453 13.04712891 6.81894531 12.44191406 6.35742188 11.81835938 C5.4075107 10.56008639 4.45698543 9.30227678 3.50585938 8.04492188 C0 3.30467623 0 3.30467623 0 0 Z " fill="#103D6D" transform="translate(212,10)"/>
<path d="M0 0 C1.07507813 -0.00128906 2.15015625 -0.00257812 3.2578125 -0.00390625 C4.38960937 -0.00003906 5.52140625 0.00382813 6.6875 0.0078125 C7.81929687 0.00394531 8.95109375 0.00007812 10.1171875 -0.00390625 C11.19226563 -0.00261719 12.26734375 -0.00132813 13.375 0 C14.86580078 0.00169189 14.86580078 0.00169189 16.38671875 0.00341797 C18.6875 0.1328125 18.6875 0.1328125 19.6875 1.1328125 C19.82943337 4.13612268 19.72986378 7.12498384 19.6875 10.1328125 C14.4075 10.1328125 9.1275 10.1328125 3.6875 10.1328125 C3.6875 11.7828125 3.6875 13.4328125 3.6875 15.1328125 C7.9775 15.1328125 12.2675 15.1328125 16.6875 15.1328125 C16.6875 18.1028125 16.6875 21.0728125 16.6875 24.1328125 C12.3975 24.1328125 8.1075 24.1328125 3.6875 24.1328125 C3.6875 26.1128125 3.6875 28.0928125 3.6875 30.1328125 C8.9675 30.1328125 14.2475 30.1328125 19.6875 30.1328125 C19.6875 33.1028125 19.6875 36.0728125 19.6875 39.1328125 C11.4375 39.1328125 3.1875 39.1328125 -5.3125 39.1328125 C-6.89407077 35.96967097 -6.4543935 32.56991707 -6.4453125 29.09765625 C-6.44626923 28.3038002 -6.44722595 27.50994415 -6.44821167 26.69203186 C-6.44889251 25.01335572 -6.4470449 23.33467695 -6.44287109 21.65600586 C-6.43751441 19.07725153 -6.44282292 16.49867082 -6.44921875 13.91992188 C-6.44855809 12.29166628 -6.44727718 10.66341079 -6.4453125 9.03515625 C-6.44733673 8.25913559 -6.44936096 7.48311493 -6.45144653 6.68357849 C-6.42353998 0.36051556 -6.24328624 0.00708544 0 0 Z " fill="#144070" transform="translate(189.3125,9.8671875)"/>
<path d="M0 0 C6.71042784 0.10531167 12.14960785 1.01851441 17.44018555 5.25097656 C20.37929606 9.16979058 20.57609332 13.52197228 19.94018555 18.25097656 C18.16225035 21.87522908 16.59136095 23.78585128 13.31518555 26.12597656 C8.68673312 27.66879404 4.80917464 27.44836801 -0.05981445 27.25097656 C-0.05981445 31.21097656 -0.05981445 35.17097656 -0.05981445 39.25097656 C-3.35981445 39.25097656 -6.65981445 39.25097656 -10.05981445 39.25097656 C-10.08446295 33.85750668 -10.10264976 28.46406931 -10.11474609 23.07055664 C-10.11978677 21.23428781 -10.12661922 19.39802302 -10.13525391 17.56176758 C-10.14733118 14.92821255 -10.15304526 12.2947104 -10.1574707 9.66113281 C-10.16263199 8.83509048 -10.16779327 8.00904816 -10.17311096 7.15797424 C-10.1733065 5.18861289 -10.12185597 3.21936043 -10.05981445 1.25097656 C-7.80039978 -1.00843811 -3.04917231 0.00144562 0 0 Z M-0.05981445 9.25097656 C-0.05981445 12.22097656 -0.05981445 15.19097656 -0.05981445 18.25097656 C3.95027894 18.42962288 3.95027894 18.42962288 7.94018555 18.25097656 C8.60018555 17.59097656 9.26018555 16.93097656 9.94018555 16.25097656 C9.61819589 13.15170837 9.61819589 13.15170837 8.94018555 10.25097656 C5.97018555 9.92097656 3.00018555 9.59097656 -0.05981445 9.25097656 Z " fill="#103C6D" transform="translate(89.059814453125,9.7490234375)"/>
<path d="M0 0 C4 1 4 1 5 2 C5.33 1.34 5.66 0.68 6 0 C6.99 0 7.98 0 9 0 C9 3.3 9 6.6 9 10 C5 8 5 8 4 7 C3.67 7.99 3.34 8.98 3 10 C2.01 10 1.02 10 0 10 C0 6.7 0 3.4 0 0 Z " fill="#2F5680" transform="translate(96,56)"/>
<path d="M0 0 C1.98 0 3.96 0 6 0 C7.0625 1.8125 7.0625 1.8125 8 4 C7.67 4.99 7.34 5.98 7 7 C7.33 7.99 7.66 8.98 8 10 C7.01 10 6.02 10 5 10 C4.67 9.34 4.34 8.68 4 8 C3.67 8.66 3.34 9.32 3 10 C2.01 10 1.02 10 0 10 C0 6.7 0 3.4 0 0 Z M3 2 C3 2.66 3 3.32 3 4 C3.66 3.67 4.32 3.34 5 3 C4.34 2.67 3.68 2.34 3 2 Z " fill="#1F4979" transform="translate(208,56)"/>
<path d="M0 0 C1.4540625 0.0309375 1.4540625 0.0309375 2.9375 0.0625 C3.2675 1.0525 3.5975 2.0425 3.9375 3.0625 C2.2875 3.0625 0.6375 3.0625 -1.0625 3.0625 C-1.3925 4.3825 -1.7225 5.7025 -2.0625 7.0625 C-1.4025 6.7325 -0.7425 6.4025 -0.0625 6.0625 C-0.0625 5.4025 -0.0625 4.7425 -0.0625 4.0625 C1.5875 4.0625 3.2375 4.0625 4.9375 4.0625 C4.6075 5.7125 4.2775 7.3625 3.9375 9.0625 C-1.47389241 10.38528481 -1.47389241 10.38528481 -4 9 C-5.57595523 6.12619928 -4.86751033 4.14837291 -4.0625 1.0625 C-3.0625 0.0625 -3.0625 0.0625 0 0 Z " fill="#2E547E" transform="translate(120.0625,55.9375)"/>
<path d="M0 0 C0.99 0 1.98 0 3 0 C3 0.99 3 1.98 3 3 C3.99 3 4.98 3 6 3 C6 2.01 6 1.02 6 0 C6.66 0 7.32 0 8 0 C8 3.3 8 6.6 8 10 C7.34 10 6.68 10 6 10 C6 8.68 6 7.36 6 6 C5.01 6 4.02 6 3 6 C3 7.32 3 8.64 3 10 C2.01 10 1.02 10 0 10 C0 6.7 0 3.4 0 0 Z " fill="#1F4A77" transform="translate(171,56)"/>
<path d="M0 0 C2.31 0 4.62 0 7 0 C6.814375 0.9075 6.62875 1.815 6.4375 2.75 C6.04265379 5.68314324 6.05308428 7.2644657 7 10 C4.69 10 2.38 10 0 10 C0 6.7 0 3.4 0 0 Z " fill="#244E79" transform="translate(79,56)"/>
<path d="M0 0 C0.99 0 1.98 0 3 0 C3.66 0.99 4.32 1.98 5 3 C5.33 2.01 5.66 1.02 6 0 C6.66 0 7.32 0 8 0 C8 3.3 8 6.6 8 10 C4 8 4 8 3 6 C2.67 7.32 2.34 8.64 2 10 C1.34 10 0.68 10 0 10 C0 6.7 0 3.4 0 0 Z " fill="#154170" transform="translate(152,56)"/>
<path d="M0 0 C1.32 0.33 2.64 0.66 4 1 C5.046875 3.06640625 5.046875 3.06640625 5.75 5.5625 C5.99234375 6.38878906 6.2346875 7.21507812 6.484375 8.06640625 C6.65453125 8.70449219 6.8246875 9.34257813 7 10 C6.01 10 5.02 10 4 10 C4 9.34 4 8.68 4 8 C2.68 8 1.36 8 0 8 C0 8.66 0 9.32 0 10 C-0.99 10 -1.98 10 -3 10 C-2.01 6.7 -1.02 3.4 0 0 Z " fill="#2C547F" transform="translate(192,56)"/>
<path d="M0 0 C0.99 0 1.98 0 3 0 C3.99 3.3 4.98 6.6 6 10 C5.01 10 4.02 10 3 10 C3 9.34 3 8.68 3 8 C1.68 8 0.36 8 -1 8 C-1 8.66 -1 9.32 -1 10 C-1.99 10 -2.98 10 -4 10 C-3.52449439 8.51965236 -3.04448784 7.04074979 -2.5625 5.5625 C-2.29566406 4.73878906 -2.02882812 3.91507813 -1.75390625 3.06640625 C-1 1 -1 1 0 0 Z " fill="#315880" transform="translate(242,56)"/>
<path d="M0 0 C1.98 0 3.96 0 6 0 C6 3.3 6 6.6 6 10 C4.02 10 2.04 10 0 10 C0 6.7 0 3.4 0 0 Z " fill="#2F5682" transform="translate(135,56)"/>
<path d="M0 0 C0.99 0 1.98 0 3 0 C3 3.3 3 6.6 3 10 C2.01 10 1.02 10 0 10 C0 6.7 0 3.4 0 0 Z " fill="#43658C" transform="translate(226,56)"/>
<path d="M0 0 C2.0625 0.4375 2.0625 0.4375 4 1 C3.814375 1.763125 3.62875 2.52625 3.4375 3.3125 C2.77180827 6.08967375 2.77180827 6.08967375 4 9 C3.01 9 2.02 9 1 9 C0.67 8.01 0.34 7.02 0 6 C0.33 5.34 0.66 4.68 1 4 C0.01 4 -0.98 4 -2 4 C-1 1 -1 1 0 0 Z " fill="#3F6289" transform="translate(212,57)"/>
<path d="M0 0 C3.3 0 6.6 0 10 0 C10.66 1.32 11.32 2.64 12 4 C8.7 3.34 5.4 2.68 2 2 C1.67 2.66 1.34 3.32 1 4 C0.67 2.68 0.34 1.36 0 0 Z " fill="#6F87A4" transform="translate(212,10)"/>
<path d="M0 0 C3.63 0 7.26 0 11 0 C11.33 0.99 11.66 1.98 12 3 C10.37581255 3.08090971 8.75048255 3.13914995 7.125 3.1875 C5.76761719 3.23970703 5.76761719 3.23970703 4.3828125 3.29296875 C3.20332031 3.14794922 3.20332031 3.14794922 2 3 C1.34 2.01 0.68 1.02 0 0 Z " fill="#385B84" transform="translate(236,46)"/>
<path d="M0 0 C0.33 0.66 0.66 1.32 1 2 C3.97 2 6.94 2 10 2 C9.67 2.66 9.34 3.32 9 4 C5.7 4 2.4 4 -1 4 C-0.67 2.68 -0.34 1.36 0 0 Z " fill="#3C5E87" transform="translate(213,45)"/>
<path d="M0 0 C1.9375 0.8125 1.9375 0.8125 4 2 C4.33 2.99 4.66 3.98 5 5 C3.68 5 2.36 5 1 5 C1 5.66 1 6.32 1 7 C0.01 7 -0.98 7 -2 7 C-1.34 4.69 -0.68 2.38 0 0 Z " fill="#517596" transform="translate(240,59)"/>
<path d="M0 0 C4.875 2.625 4.875 2.625 6 6 C4.35 6.66 2.7 7.32 1 8 C1 7.34 1 6.68 1 6 C1.66 6 2.32 6 3 6 C3 5.01 3 4.02 3 3 C2.01 2.67 1.02 2.34 0 2 C0 1.34 0 0.68 0 0 Z " fill="#F58D50" transform="translate(17,25)"/>
<path d="M0 0 C0.66 0 1.32 0 2 0 C2 1.65 2 3.3 2 5 C3.32 5.66 4.64 6.32 6 7 C2.48283697 7 1.62878252 6.17554415 -1 4 C-0.67 2.68 -0.34 1.36 0 0 Z " fill="#F68D4D" transform="translate(47,27)"/>
<path d="M0 0 C1.37562854 1.28965176 2.70766393 2.62689293 4 4 C4 4.66 4 5.32 4 6 C3.01 6 2.02 6 1 6 C1 5.34 1 4.68 1 4 C-0.32 3.67 -1.64 3.34 -3 3 C-2.01 3 -1.02 3 0 3 C0 2.01 0 1.02 0 0 Z " fill="#5F7D9E" transform="translate(195,60)"/>
<path d="M0 0 C1.32 0.33 2.64 0.66 4 1 C4.33 2.32 4.66 3.64 5 5 C3.68 5.33 2.36 5.66 1 6 C0.67 4.02 0.34 2.04 0 0 Z " fill="#3B5E85" transform="translate(192,56)"/>
<path d="M0 0 C0.99 0 1.98 0 3 0 C3.99 1.98 4.98 3.96 6 6 C5.34 6.66 4.68 7.32 4 8 C2 5 2 5 2 1 C1.34 0.67 0.68 0.34 0 0 Z " fill="#426489" transform="translate(152,56)"/>
</svg>
